<?xml version="1.0" encoding="utf-8"?>
<!-- Generator: Adobe Illustrator 22.1.0, SVG Export Plug-In . SVG Version: 6.00 Build 0)  -->
<svg version="1.1" id="Layer_1" xmlns="http://www.w3.org/2000/svg" xmlns:xlink="http://www.w3.org/1999/xlink" x="0px" y="0px"
	 viewBox="0 0 184.1 42.5" style="enable-background:new 0 0 184.1 42.5;" xml:space="preserve">
<style type="text/css">
	.Arched_x0020_Green{fill:url(#SVGID_1_);stroke:#FFFFFF;stroke-width:0.25;stroke-miterlimit:1;}
	.st0{fill:#E3000F;}
</style>
<linearGradient id="SVGID_1_" gradientUnits="userSpaceOnUse" x1="-271.4048" y1="187.4419" x2="-270.6977" y2="186.7348">
	<stop  offset="0" style="stop-color:#18A236"/>
	<stop  offset="0.9831" style="stop-color:#23381C"/>
</linearGradient>
<g>
	<polygon class="st0" points="38.1,0 32.5,16 32.5,0 0,0 0,13 17.2,13 17.2,42.5 32.5,42.5 32.5,23.6 38.1,42.5 54.1,42.5 
		47.9,20.4 54.1,0 	"/>
	<rect x="56.2" class="st0" width="15.9" height="42.5"/>
	<path class="st0" d="M113.6,11.1c0.1-7.4-3.9-10.9-9.4-11.1h-9.6H75.9v42.5h18.7h9.6c6.8,0,9.4-5.1,9.5-10.9
		c-0.2-3.5-1.1-10.7-6.4-11.2C110.7,19,113.6,15.9,113.6,11.1z M94.6,32.1c-0.5,0.2-1.1,0.3-1.9,0.3v-8.8c0.8,0,1.4,0.1,1.9,0.3
		c1.9,0.9,1.9,3.1,1.9,4.4C96.5,29.6,96.5,31.4,94.6,32.1z M94.6,15.8c-0.5,0.1-1.2,0.2-1.9,0.2V9.5c0.8,0,1.4,0.1,1.9,0.3
		c1.9,0.6,1.9,2.3,1.9,3.2C96.5,14.7,95.8,15.5,94.6,15.8z"/>
	<polygon class="st0" points="133.6,0 116.7,0 116.7,42.5 143.5,42.5 143.5,32.4 133.6,32.4 	"/>
	<path class="st0" d="M176.9,0h-12.8h-12.9l-6.8,42.5H161l1.1-10.1h2.1h1.9l1.1,10.1h16.9L176.9,0z M164.1,23.6l-1.2,0.1l1.2-10
		l0.1-0.7l1.1,10.6H164.1z"/>
</g>
</svg>
