<?xml version="1.0" encoding="utf-8"?>
<!-- Generator: Adobe Illustrator 22.1.0, SVG Export Plug-In . SVG Version: 6.00 Build 0)  -->
<svg version="1.1" id="Layer_1" xmlns="http://www.w3.org/2000/svg" xmlns:xlink="http://www.w3.org/1999/xlink" x="0px" y="0px"
	 viewBox="0 0 329.3 121.7" style="enable-background:new 0 0 329.3 121.7;" xml:space="preserve">
<g>
	<path d="M17.3,50.7v-41H0.2V1.3H44v8.5H26.9v41H17.3z"/>
	<path d="M51.1,50.7V1.3h37.4v8.5H60.6v11.4h23.7v8.5H60.6v12.6h28.6v8.5H51.1z"/>
	<path d="M126.8,50.7l-19.4-36.4v36.4h-9.5V1.3h12.4l19.4,36.2V1.3h9.5v49.5H126.8z"/>
	<path d="M177.4,16.8c-0.2-2.5-1.1-4.4-2.8-5.8c-1.6-1.3-3.8-2-6.4-2h-0.7c-2.5,0-4.6,0.6-6.1,1.8c-1.6,1.2-2.3,2.6-2.3,4.2
		c0,1.6,0.5,2.8,1.4,3.7c0.9,0.8,2.5,1.5,4.6,1.9l7.4,1.5c9.1,1.8,13.7,6.5,13.7,14.1c0,4.4-1.7,8-5.1,10.9c-3.4,2.9-8,4.3-14,4.3
		c-6.5,0-11.5-1.5-14.8-4.6c-3.3-3.1-5.1-7.3-5.3-12.7h9.5c0.2,2.6,1.2,4.8,3.1,6.4c1.9,1.6,4.6,2.4,8.2,2.4h0.7
		c2.5,0,4.5-0.6,5.9-1.7c1.4-1.2,2.1-2.6,2.1-4.3c0-1.5-0.4-2.7-1.2-3.5c-0.8-0.8-2.3-1.5-4.4-1.9l-8.8-1.8
		c-8.5-1.7-12.7-6.5-12.7-14.3c0-4,1.7-7.5,5.1-10.4c3.4-2.9,7.9-4.4,13.7-4.4c5.9,0,10.5,1.5,13.8,4.5c3.3,3,4.9,6.9,4.9,11.7
		H177.4z"/>
	<path d="M195.5,50.7V1.3H233v8.5h-27.9v11.4h23.7v8.5h-23.7v12.6h28.6v8.5H195.5z"/>
</g>
<path d="M4.6,120.5V71h22.3c4.9,0,8.7,1.4,11.6,4.1c2.9,2.7,4.3,6.5,4.3,11.4c0,4.9-1.4,8.7-4.3,11.5s-6.7,4.1-11.6,4.1H14.1v18.3
	H4.6z M14.1,93.7h11.7c2.4,0,4.2-0.6,5.5-1.9c1.3-1.3,1.9-3,1.9-5.2c0-2.2-0.6-3.9-1.9-5.2c-1.3-1.3-3.1-1.9-5.5-1.9H14.1V93.7z"/>
<path d="M50.7,120.5V71h23c4.3,0,7.9,1.3,10.8,3.8c2.9,2.5,4.4,5.7,4.4,9.6c0,6.2-2.8,10.4-8.4,12.5c5.1,0,7.7,2.3,7.7,7v16.5h-9.5
	v-14.1c0-1.8-0.3-3-1-3.6c-0.6-0.6-1.8-1-3.6-1H60.2v18.7H50.7z M60.2,93.4h10.6c5.7,0,8.5-2.4,8.5-7.1c0-4.5-2.8-6.8-8.5-6.8H60.2
	V93.4z"/>
<path d="M98.9,120.5V71h37.4v8.5h-27.9v11.4h23.7v8.5h-23.7V112H137v8.5H98.9z"/>
<path d="M172.2,86.6c-0.2-2.5-1.1-4.4-2.8-5.8c-1.6-1.3-3.8-2-6.4-2h-0.7c-2.5,0-4.6,0.6-6.1,1.8c-1.6,1.2-2.3,2.6-2.3,4.2
	c0,1.6,0.5,2.8,1.4,3.7c0.9,0.8,2.5,1.5,4.6,1.9l7.4,1.5c9.1,1.8,13.7,6.5,13.7,14.1c0,4.4-1.7,8-5.1,10.9c-3.4,2.9-8,4.3-14,4.3
	c-6.5,0-11.5-1.5-14.8-4.6c-3.3-3.1-5.1-7.3-5.3-12.7h9.5c0.2,2.6,1.2,4.8,3.1,6.4c1.9,1.6,4.6,2.4,8.2,2.4h0.7
	c2.5,0,4.5-0.6,5.9-1.7c1.4-1.2,2.1-2.6,2.1-4.3c0-1.5-0.4-2.7-1.2-3.5c-0.8-0.8-2.3-1.5-4.4-1.9l-8.8-1.8
	c-8.5-1.7-12.7-6.5-12.7-14.3c0-4,1.7-7.5,5.1-10.4c3.4-2.9,7.9-4.4,13.7-4.4c5.9,0,10.5,1.5,13.8,4.5c3.3,3,4.9,6.9,4.9,11.7H172.2
	z"/>
<path d="M190.4,120.5V71h37.4v8.5h-27.9v11.4h23.7v8.5h-23.7V112h28.6v8.5H190.4z"/>
<path d="M266,120.5l-19.4-36.4v36.4h-9.5V71h12.4l19.4,36.2V71h9.5v49.5H266z"/>
<path d="M302.6,120.5v-41h-17.1V71h43.8v8.5h-17.2v41H302.6z"/>
</svg>
